# xmcd
# 
# Track frame offsets:
#     150
#     30557
#     63800
#     88257
#     112550
#     134350
#     154220
# 
# Disc length: 2312
# 
# Revision: 1
# Processed by: cddbd v1.5.2PL0 Copyright (c) Steve Scherf et al.
# Submitted via: fre:ac v1.0.17
# 
DISCID=4e090607
DTITLE=The Dave Brubeck Quartet - Time Out
DYEAR=1962
DGENRE=Jazz
TTITLE0=Blue Rondo a la Turk
TTITLE1=Strange Meadow Lark
TTITLE2=Take Five
TTITLE3=Three to Get Ready
TTITLE4=Kathy's Waltz
TTITLE5=Everybody's Jumpin'
TTITLE6=Pick Up Sticks
EXTD=
EXTT0=
EXTT1=
EXTT2=
EXTT3=
EXTT4=
EXTT5=
EXTT6=
PLAYORDER=
